<svg width="45" height="41" viewBox="0 0 45 41" fill="none" xmlns="http://www.w3.org/2000/svg">
<path d="M22.5005 40.5627C34.6618 40.5627 44.5205 31.5803 44.5205 20.5C44.5205 9.41974 34.6618 0.437378 22.5005 0.437378C10.3392 0.437378 0.480469 9.41974 0.480469 20.5C0.480469 31.5803 10.3392 40.5627 22.5005 40.5627Z" fill="#993399"/>
<path d="M17.5504 23.0967C17.1904 23.042 15.2704 24.436 15.2704 24.436C15.2704 24.436 12.0904 28.0167 9.27043 26.1033C5.31043 23.3973 9.39043 20.582 9.39043 20.582C6.81043 19.4067 7.32043 15.3887 10.3204 14.5687C13.3204 13.776 14.3704 15.3067 15.3904 16.646C16.3804 17.9853 17.4604 17.876 17.4604 17.876H27.6004C27.6004 17.876 28.6504 17.9853 29.6704 16.646C30.6904 15.3067 31.7404 13.7487 34.7404 14.5687C37.7404 15.3613 38.2804 19.3793 35.6704 20.582C35.6704 20.582 39.7204 23.3973 35.7904 26.1033C32.9704 28.044 29.7904 24.436 29.7904 24.436C29.7904 24.436 27.8704 23.042 27.5104 23.0967H17.5504Z" fill="white"/>
</svg>
