<svg width="67" height="63" viewBox="0 0 67 63" fill="none" xmlns="http://www.w3.org/2000/svg">
<ellipse cx="33.5" cy="31.5" rx="33.5" ry="31.5" fill="#00B2D1"/>
<g clip-path="url(#clip0_145_542)">
<path fill-rule="evenodd" clip-rule="evenodd" d="M26.1523 12.2332C23.0594 12.3727 20.3785 13.1289 18.2138 15.2845C16.0416 17.4514 15.2948 20.1428 15.1549 23.2036C15.0679 25.1141 14.5594 39.5468 16.034 43.3318C17.0285 45.8853 18.987 47.8486 21.5639 48.8462C22.7663 49.3139 24.1389 49.6305 26.1523 49.7229C42.9879 50.4848 49.2287 50.07 51.8603 43.3318C52.3273 42.1323 52.6487 40.7609 52.7376 38.7525C53.507 21.8737 52.6128 18.2152 49.6786 15.2845C47.3513 12.963 44.6138 11.3827 26.1523 12.2332ZM26.3073 46.3284C24.464 46.2454 23.4639 45.9382 22.7966 45.6799C21.1177 45.0274 19.8567 43.7715 19.2083 42.1025C18.0853 39.2265 18.4577 25.567 18.5579 23.3567C18.6562 21.1917 19.0948 19.213 20.6224 17.6855C22.513 15.7996 24.9556 14.8753 41.5869 15.6259C43.7573 15.724 45.7406 16.1617 47.2719 17.6855C49.1625 19.5714 50.1002 22.0328 49.3364 38.6003C49.2532 40.4391 48.9451 41.4368 48.6861 42.1025C46.9751 46.4872 43.0389 47.0959 26.3073 46.3284ZM41.7703 20.9103C41.7703 22.1588 42.7856 23.174 44.0391 23.174C45.2925 23.174 46.3096 22.1588 46.3096 20.9103C46.3096 19.6618 45.2925 18.6475 44.0391 18.6475C42.7856 18.6475 41.7703 19.6618 41.7703 20.9103ZM24.2391 30.9771C24.2391 36.3255 28.5855 40.6618 33.9472 40.6618C39.3088 40.6618 43.6553 36.3255 43.6553 30.9771C43.6553 25.6287 39.3088 21.2953 33.9472 21.2953C28.5855 21.2953 24.2391 25.6287 24.2391 30.9771ZM27.6459 30.9771C27.6459 27.5071 30.4666 24.6917 33.9472 24.6917C37.4277 24.6917 40.2485 27.5071 40.2485 30.9771C40.2485 34.4491 37.4277 37.2653 33.9472 37.2653C30.4666 37.2653 27.6459 34.4491 27.6459 30.9771Z" fill="#752995"/>
</g>
<defs>
<clipPath id="clip0_145_542">
<rect width="38" height="38" fill="white" transform="translate(15 12)"/>
</clipPath>
</defs>
</svg>
