<svg width="67" height="63" viewBox="0 0 67 63" fill="none" xmlns="http://www.w3.org/2000/svg">
<ellipse cx="33.5" cy="31.5" rx="33.5" ry="31.5" fill="#00B2D1"/>
<path d="M48.5811 16.9471L45.8077 19.1554L33.9994 28.0992L22.1911 19.0671L19.4177 16.8587C18.7644 16.3079 17.9668 15.9645 17.1239 15.8711C16.2809 15.7777 15.4296 15.9384 14.6754 16.3334C13.9211 16.7283 13.2972 17.3401 12.8808 18.0929C12.4644 18.8458 12.2738 19.7066 12.3327 20.5688V46.1633C12.3327 46.9599 12.6432 47.7238 13.1958 48.287C13.7484 48.8502 14.4979 49.1667 15.2794 49.1667H22.1911V32.1183L33.9994 41.1504L45.8077 32.1183V49.1667H52.7194C53.5009 49.1667 54.2504 48.8502 54.803 48.287C55.3556 47.7238 55.6661 46.9599 55.6661 46.1633V20.5688C55.7068 19.714 55.503 18.8657 55.0794 18.1268C54.6559 17.388 54.031 16.7904 53.2805 16.4068C52.53 16.0231 51.6864 15.87 50.8521 15.9659C50.0178 16.0618 49.2288 16.4027 48.5811 16.9471Z" fill="#752995"/>
</svg>
