<svg width="67" height="63" viewBox="0 0 67 63" fill="none" xmlns="http://www.w3.org/2000/svg">
<ellipse cx="33.5" cy="31.5" rx="33.5" ry="31.5" fill="#00B2D1"/>
<path d="M52.2427 41.9942L43.2659 34.4482C42.8415 34.0916 42.2839 33.9014 41.7108 33.9178C41.1376 33.9342 40.5938 34.1558 40.1941 34.536L34.9095 39.5605C33.6375 39.3359 31.0803 38.5989 28.448 36.1713C25.8156 33.7356 25.0184 31.3653 24.7821 30.1974L30.2124 25.3097C30.6241 24.9404 30.8642 24.4375 30.8819 23.9075C30.8996 23.3774 30.6936 22.8618 30.3074 22.4697L22.1476 14.1724C21.7612 13.7791 21.2242 13.5405 20.6507 13.5073C20.0771 13.4742 19.5122 13.649 19.0758 13.9948L14.2837 17.7943C13.9019 18.1486 13.674 18.62 13.6433 19.1193C13.6102 19.6298 12.9786 31.7205 23.1192 41.0999C31.9658 49.2768 43.0473 49.875 46.0992 49.875C46.5452 49.875 46.8191 49.8628 46.892 49.8587C47.4319 49.8307 47.9416 49.6191 48.323 49.2645L52.4305 44.8321C52.8059 44.43 52.9964 43.908 52.9614 43.3778C52.9263 42.8476 52.6684 42.351 52.2427 41.9942Z" fill="#752995"/>
</svg>
