<svg width="266" height="48" viewBox="0 0 266 48" fill="none" xmlns="http://www.w3.org/2000/svg">
<path d="M0 20C0 8.95431 8.9543 0 20 0H246C257.046 0 266 8.9543 266 20V28C266 39.0457 257.046 48 246 48H20C8.95431 48 0 39.0457 0 28V20Z" fill="#9A80A7"/>
<path d="M19.1523 14.9375V32H15.6484V14.9375H19.1523ZM24.4023 14.9375V17.6914H10.4805V14.9375H24.4023ZM30.9297 32.2344C29.9453 32.2344 29.0625 32.0781 28.2812 31.7656C27.5 31.4453 26.8359 31.0039 26.2891 30.4414C25.75 29.8789 25.3359 29.2266 25.0469 28.4844C24.7578 27.7344 24.6133 26.9375 24.6133 26.0938V25.625C24.6133 24.6641 24.75 23.7852 25.0234 22.9883C25.2969 22.1914 25.6875 21.5 26.1953 20.9141C26.7109 20.3281 27.3359 19.8789 28.0703 19.5664C28.8047 19.2461 29.6328 19.0859 30.5547 19.0859C31.4531 19.0859 32.25 19.2344 32.9453 19.5312C33.6406 19.8281 34.2227 20.25 34.6914 20.7969C35.168 21.3438 35.5273 22 35.7695 22.7656C36.0117 23.5234 36.1328 24.3672 36.1328 25.2969V26.7031H26.0547V24.4531H32.8164V24.1953C32.8164 23.7266 32.7305 23.3086 32.5586 22.9414C32.3945 22.5664 32.1445 22.2695 31.8086 22.0508C31.4727 21.832 31.043 21.7227 30.5195 21.7227C30.0742 21.7227 29.6914 21.8203 29.3711 22.0156C29.0508 22.2109 28.7891 22.4844 28.5859 22.8359C28.3906 23.1875 28.2422 23.6016 28.1406 24.0781C28.0469 24.5469 28 25.0625 28 25.625V26.0938C28 26.6016 28.0703 27.0703 28.2109 27.5C28.3594 27.9297 28.5664 28.3008 28.832 28.6133C29.1055 28.9258 29.4336 29.168 29.8164 29.3398C30.207 29.5117 30.6484 29.5977 31.1406 29.5977C31.75 29.5977 32.3164 29.4805 32.8398 29.2461C33.3711 29.0039 33.8281 28.6406 34.2109 28.1562L35.8516 29.9375C35.5859 30.3203 35.2227 30.6875 34.7617 31.0391C34.3086 31.3906 33.7617 31.6797 33.1211 31.9062C32.4805 32.125 31.75 32.2344 30.9297 32.2344ZM41.3594 22.0273V32H37.9844V19.3203H41.1484L41.3594 22.0273ZM40.8672 25.2148H39.9531C39.9531 24.2773 40.0742 23.4336 40.3164 22.6836C40.5586 21.9258 40.8984 21.2812 41.3359 20.75C41.7734 20.2109 42.293 19.8008 42.8945 19.5195C43.5039 19.2305 44.1836 19.0859 44.9336 19.0859C45.5273 19.0859 46.0703 19.1719 46.5625 19.3438C47.0547 19.5156 47.4766 19.7891 47.8281 20.1641C48.1875 20.5391 48.4609 21.0352 48.6484 21.6523C48.8438 22.2695 48.9414 23.0234 48.9414 23.9141V32H45.543V23.9023C45.543 23.3398 45.4648 22.9023 45.3086 22.5898C45.1523 22.2773 44.9219 22.0586 44.6172 21.9336C44.3203 21.8008 43.9531 21.7344 43.5156 21.7344C43.0625 21.7344 42.668 21.8242 42.332 22.0039C42.0039 22.1836 41.7305 22.4336 41.5117 22.7539C41.3008 23.0664 41.1406 23.4336 41.0312 23.8555C40.9219 24.2773 40.8672 24.7305 40.8672 25.2148ZM57.3438 32.2344C56.3594 32.2344 55.4766 32.0781 54.6953 31.7656C53.9141 31.4453 53.25 31.0039 52.7031 30.4414C52.1641 29.8789 51.75 29.2266 51.4609 28.4844C51.1719 27.7344 51.0273 26.9375 51.0273 26.0938V25.625C51.0273 24.6641 51.1641 23.7852 51.4375 22.9883C51.7109 22.1914 52.1016 21.5 52.6094 20.9141C53.125 20.3281 53.75 19.8789 54.4844 19.5664C55.2188 19.2461 56.0469 19.0859 56.9688 19.0859C57.8672 19.0859 58.6641 19.2344 59.3594 19.5312C60.0547 19.8281 60.6367 20.25 61.1055 20.7969C61.582 21.3438 61.9414 22 62.1836 22.7656C62.4258 23.5234 62.5469 24.3672 62.5469 25.2969V26.7031H52.4688V24.4531H59.2305V24.1953C59.2305 23.7266 59.1445 23.3086 58.9727 22.9414C58.8086 22.5664 58.5586 22.2695 58.2227 22.0508C57.8867 21.832 57.457 21.7227 56.9336 21.7227C56.4883 21.7227 56.1055 21.8203 55.7852 22.0156C55.4648 22.2109 55.2031 22.4844 55 22.8359C54.8047 23.1875 54.6562 23.6016 54.5547 24.0781C54.4609 24.5469 54.4141 25.0625 54.4141 25.625V26.0938C54.4141 26.6016 54.4844 27.0703 54.625 27.5C54.7734 27.9297 54.9805 28.3008 55.2461 28.6133C55.5195 28.9258 55.8477 29.168 56.2305 29.3398C56.6211 29.5117 57.0625 29.5977 57.5547 29.5977C58.1641 29.5977 58.7305 29.4805 59.2539 29.2461C59.7852 29.0039 60.2422 28.6406 60.625 28.1562L62.2656 29.9375C62 30.3203 61.6367 30.6875 61.1758 31.0391C60.7227 31.3906 60.1758 31.6797 59.5352 31.9062C58.8945 32.125 58.1641 32.2344 57.3438 32.2344ZM67.7734 22.0273V32H64.3984V19.3203H67.5625L67.7734 22.0273ZM67.2812 25.2148H66.3672C66.3672 24.2773 66.4883 23.4336 66.7305 22.6836C66.9727 21.9258 67.3125 21.2812 67.75 20.75C68.1875 20.2109 68.707 19.8008 69.3086 19.5195C69.918 19.2305 70.5977 19.0859 71.3477 19.0859C71.9414 19.0859 72.4844 19.1719 72.9766 19.3438C73.4688 19.5156 73.8906 19.7891 74.2422 20.1641C74.6016 20.5391 74.875 21.0352 75.0625 21.6523C75.2578 22.2695 75.3555 23.0234 75.3555 23.9141V32H71.957V23.9023C71.957 23.3398 71.8789 22.9023 71.7227 22.5898C71.5664 22.2773 71.3359 22.0586 71.0312 21.9336C70.7344 21.8008 70.3672 21.7344 69.9297 21.7344C69.4766 21.7344 69.082 21.8242 68.7461 22.0039C68.418 22.1836 68.1445 22.4336 67.9258 22.7539C67.7148 23.0664 67.5547 23.4336 67.4453 23.8555C67.3359 24.2773 67.2812 24.7305 67.2812 25.2148ZM83.1602 29.5977C83.5742 29.5977 83.9414 29.5195 84.2617 29.3633C84.582 29.1992 84.832 28.9727 85.0117 28.6836C85.1992 28.3867 85.2969 28.0391 85.3047 27.6406H88.4805C88.4727 28.5312 88.2344 29.3242 87.7656 30.0195C87.2969 30.707 86.668 31.25 85.8789 31.6484C85.0898 32.0391 84.207 32.2344 83.2305 32.2344C82.2461 32.2344 81.3867 32.0703 80.6523 31.7422C79.9258 31.4141 79.3203 30.9609 78.8359 30.3828C78.3516 29.7969 77.9883 29.1172 77.7461 28.3438C77.5039 27.5625 77.3828 26.7266 77.3828 25.8359V25.4961C77.3828 24.5977 77.5039 23.7617 77.7461 22.9883C77.9883 22.207 78.3516 21.5273 78.8359 20.9492C79.3203 20.3633 79.9258 19.9062 80.6523 19.5781C81.3789 19.25 82.2305 19.0859 83.207 19.0859C84.2461 19.0859 85.1562 19.2852 85.9375 19.6836C86.7266 20.082 87.3438 20.6523 87.7891 21.3945C88.2422 22.1289 88.4727 23 88.4805 24.0078H85.3047C85.2969 23.5859 85.207 23.2031 85.0352 22.8594C84.8711 22.5156 84.6289 22.2422 84.3086 22.0391C83.9961 21.8281 83.6094 21.7227 83.1484 21.7227C82.6562 21.7227 82.2539 21.8281 81.9414 22.0391C81.6289 22.2422 81.3867 22.5234 81.2148 22.8828C81.043 23.2344 80.9219 23.6367 80.8516 24.0898C80.7891 24.5352 80.7578 25.0039 80.7578 25.4961V25.8359C80.7578 26.3281 80.7891 26.8008 80.8516 27.2539C80.9141 27.707 81.0312 28.1094 81.2031 28.4609C81.3828 28.8125 81.6289 29.0898 81.9414 29.293C82.2539 29.4961 82.6602 29.5977 83.1602 29.5977ZM94 19.3203V32H90.6133V19.3203H94ZM90.4023 16.0156C90.4023 15.5234 90.5742 15.1172 90.918 14.7969C91.2617 14.4766 91.7227 14.3164 92.3008 14.3164C92.8711 14.3164 93.3281 14.4766 93.6719 14.7969C94.0234 15.1172 94.1992 15.5234 94.1992 16.0156C94.1992 16.5078 94.0234 16.9141 93.6719 17.2344C93.3281 17.5547 92.8711 17.7148 92.3008 17.7148C91.7227 17.7148 91.2617 17.5547 90.918 17.2344C90.5742 16.9141 90.4023 16.5078 90.4023 16.0156ZM103.633 29.1406V23.4922C103.633 23.0859 103.566 22.7383 103.434 22.4492C103.301 22.1523 103.094 21.9219 102.812 21.7578C102.539 21.5938 102.184 21.5117 101.746 21.5117C101.371 21.5117 101.047 21.5781 100.773 21.7109C100.5 21.8359 100.289 22.0195 100.141 22.2617C99.9922 22.4961 99.918 22.7734 99.918 23.0938H96.543C96.543 22.5547 96.668 22.043 96.918 21.5586C97.168 21.0742 97.5312 20.6484 98.0078 20.2812C98.4844 19.9062 99.0508 19.6133 99.707 19.4023C100.371 19.1914 101.113 19.0859 101.934 19.0859C102.918 19.0859 103.793 19.25 104.559 19.5781C105.324 19.9062 105.926 20.3984 106.363 21.0547C106.809 21.7109 107.031 22.5312 107.031 23.5156V28.9414C107.031 29.6367 107.074 30.207 107.16 30.6523C107.246 31.0898 107.371 31.4727 107.535 31.8008V32H104.125C103.961 31.6562 103.836 31.2266 103.75 30.7109C103.672 30.1875 103.633 29.6641 103.633 29.1406ZM104.078 24.2773L104.102 26.1875H102.215C101.77 26.1875 101.383 26.2383 101.055 26.3398C100.727 26.4414 100.457 26.5859 100.246 26.7734C100.035 26.9531 99.8789 27.1641 99.7773 27.4062C99.6836 27.6484 99.6367 27.9141 99.6367 28.2031C99.6367 28.4922 99.7031 28.7539 99.8359 28.9883C99.9688 29.2148 100.16 29.3945 100.41 29.5273C100.66 29.6523 100.953 29.7148 101.289 29.7148C101.797 29.7148 102.238 29.6133 102.613 29.4102C102.988 29.207 103.277 28.957 103.48 28.6602C103.691 28.3633 103.801 28.082 103.809 27.8164L104.699 29.2461C104.574 29.5664 104.402 29.8984 104.184 30.2422C103.973 30.5859 103.703 30.9102 103.375 31.2148C103.047 31.5117 102.652 31.7578 102.191 31.9531C101.73 32.1406 101.184 32.2344 100.551 32.2344C99.7461 32.2344 99.0156 32.0742 98.3594 31.7539C97.7109 31.4258 97.1953 30.9766 96.8125 30.4062C96.4375 29.8281 96.25 29.1719 96.25 28.4375C96.25 27.7734 96.375 27.1836 96.625 26.668C96.875 26.1523 97.2422 25.7188 97.7266 25.3672C98.2188 25.0078 98.832 24.7383 99.5664 24.5586C100.301 24.3711 101.152 24.2773 102.121 24.2773H104.078ZM115.82 14.9375H122.184C123.488 14.9375 124.609 15.1328 125.547 15.5234C126.492 15.9141 127.219 16.4922 127.727 17.2578C128.234 18.0234 128.488 18.9648 128.488 20.082C128.488 20.9961 128.332 21.7812 128.02 22.4375C127.715 23.0859 127.281 23.6289 126.719 24.0664C126.164 24.4961 125.512 24.8398 124.762 25.0977L123.648 25.6836H118.117L118.094 22.9414H122.207C122.824 22.9414 123.336 22.832 123.742 22.6133C124.148 22.3945 124.453 22.0898 124.656 21.6992C124.867 21.3086 124.973 20.8555 124.973 20.3398C124.973 19.793 124.871 19.3203 124.668 18.9219C124.465 18.5234 124.156 18.2188 123.742 18.0078C123.328 17.7969 122.809 17.6914 122.184 17.6914H119.336V32H115.82V14.9375ZM125.359 32L121.469 24.3945L125.184 24.3711L129.121 31.8359V32H125.359ZM136.82 32.2344C135.836 32.2344 134.953 32.0781 134.172 31.7656C133.391 31.4453 132.727 31.0039 132.18 30.4414C131.641 29.8789 131.227 29.2266 130.938 28.4844C130.648 27.7344 130.504 26.9375 130.504 26.0938V25.625C130.504 24.6641 130.641 23.7852 130.914 22.9883C131.188 22.1914 131.578 21.5 132.086 20.9141C132.602 20.3281 133.227 19.8789 133.961 19.5664C134.695 19.2461 135.523 19.0859 136.445 19.0859C137.344 19.0859 138.141 19.2344 138.836 19.5312C139.531 19.8281 140.113 20.25 140.582 20.7969C141.059 21.3438 141.418 22 141.66 22.7656C141.902 23.5234 142.023 24.3672 142.023 25.2969V26.7031H131.945V24.4531H138.707V24.1953C138.707 23.7266 138.621 23.3086 138.449 22.9414C138.285 22.5664 138.035 22.2695 137.699 22.0508C137.363 21.832 136.934 21.7227 136.41 21.7227C135.965 21.7227 135.582 21.8203 135.262 22.0156C134.941 22.2109 134.68 22.4844 134.477 22.8359C134.281 23.1875 134.133 23.6016 134.031 24.0781C133.938 24.5469 133.891 25.0625 133.891 25.625V26.0938C133.891 26.6016 133.961 27.0703 134.102 27.5C134.25 27.9297 134.457 28.3008 134.723 28.6133C134.996 28.9258 135.324 29.168 135.707 29.3398C136.098 29.5117 136.539 29.5977 137.031 29.5977C137.641 29.5977 138.207 29.4805 138.73 29.2461C139.262 29.0039 139.719 28.6406 140.102 28.1562L141.742 29.9375C141.477 30.3203 141.113 30.6875 140.652 31.0391C140.199 31.3906 139.652 31.6797 139.012 31.9062C138.371 32.125 137.641 32.2344 136.82 32.2344ZM150.801 28.4961C150.801 28.2539 150.73 28.0352 150.59 27.8398C150.449 27.6445 150.188 27.4648 149.805 27.3008C149.43 27.1289 148.887 26.9727 148.176 26.832C147.535 26.6914 146.938 26.5156 146.383 26.3047C145.836 26.0859 145.359 25.8242 144.953 25.5195C144.555 25.2148 144.242 24.8555 144.016 24.4414C143.789 24.0195 143.676 23.5391 143.676 23C143.676 22.4688 143.789 21.9688 144.016 21.5C144.25 21.0312 144.582 20.6172 145.012 20.2578C145.449 19.8906 145.98 19.6055 146.605 19.4023C147.238 19.1914 147.949 19.0859 148.738 19.0859C149.84 19.0859 150.785 19.2617 151.574 19.6133C152.371 19.9648 152.98 20.4492 153.402 21.0664C153.832 21.6758 154.047 22.3711 154.047 23.1523H150.672C150.672 22.8242 150.602 22.5312 150.461 22.2734C150.328 22.0078 150.117 21.8008 149.828 21.6523C149.547 21.4961 149.18 21.418 148.727 21.418C148.352 21.418 148.027 21.4844 147.754 21.6172C147.48 21.7422 147.27 21.9141 147.121 22.1328C146.98 22.3438 146.91 22.5781 146.91 22.8359C146.91 23.0312 146.949 23.207 147.027 23.3633C147.113 23.5117 147.25 23.6484 147.438 23.7734C147.625 23.8984 147.867 24.0156 148.164 24.125C148.469 24.2266 148.844 24.3203 149.289 24.4062C150.203 24.5938 151.02 24.8398 151.738 25.1445C152.457 25.4414 153.027 25.8477 153.449 26.3633C153.871 26.8711 154.082 27.5391 154.082 28.3672C154.082 28.9297 153.957 29.4453 153.707 29.9141C153.457 30.3828 153.098 30.793 152.629 31.1445C152.16 31.4883 151.598 31.7578 150.941 31.9531C150.293 32.1406 149.562 32.2344 148.75 32.2344C147.57 32.2344 146.57 32.0234 145.75 31.6016C144.938 31.1797 144.32 30.6445 143.898 29.9961C143.484 29.3398 143.277 28.668 143.277 27.9805H146.477C146.492 28.4414 146.609 28.8125 146.828 29.0938C147.055 29.375 147.34 29.5781 147.684 29.7031C148.035 29.8281 148.414 29.8906 148.82 29.8906C149.258 29.8906 149.621 29.832 149.91 29.7148C150.199 29.5898 150.418 29.4258 150.566 29.2227C150.723 29.0117 150.801 28.7695 150.801 28.4961ZM159.648 21.7578V36.875H156.273V19.3203H159.402L159.648 21.7578ZM167.676 25.5195V25.7656C167.676 26.6875 167.566 27.543 167.348 28.332C167.137 29.1211 166.824 29.8086 166.41 30.3945C165.996 30.9727 165.48 31.4258 164.863 31.7539C164.254 32.0742 163.551 32.2344 162.754 32.2344C161.98 32.2344 161.309 32.0781 160.738 31.7656C160.168 31.4531 159.688 31.0156 159.297 30.4531C158.914 29.8828 158.605 29.2227 158.371 28.4727C158.137 27.7227 157.957 26.918 157.832 26.0586V25.4141C157.957 24.4922 158.137 23.6484 158.371 22.8828C158.605 22.1094 158.914 21.4414 159.297 20.8789C159.688 20.3086 160.164 19.8672 160.727 19.5547C161.297 19.2422 161.965 19.0859 162.73 19.0859C163.535 19.0859 164.242 19.2383 164.852 19.543C165.469 19.8477 165.984 20.2852 166.398 20.8555C166.82 21.4258 167.137 22.1055 167.348 22.8945C167.566 23.6836 167.676 24.5586 167.676 25.5195ZM164.289 25.7656V25.5195C164.289 24.9805 164.242 24.4844 164.148 24.0312C164.062 23.5703 163.922 23.168 163.727 22.8242C163.539 22.4805 163.289 22.2148 162.977 22.0273C162.672 21.832 162.301 21.7344 161.863 21.7344C161.402 21.7344 161.008 21.8086 160.68 21.957C160.359 22.1055 160.098 22.3203 159.895 22.6016C159.691 22.8828 159.539 23.2188 159.438 23.6094C159.336 24 159.273 24.4414 159.25 24.9336V26.5625C159.289 27.1406 159.398 27.6602 159.578 28.1211C159.758 28.5742 160.035 28.9336 160.41 29.1992C160.785 29.4648 161.277 29.5977 161.887 29.5977C162.332 29.5977 162.707 29.5 163.012 29.3047C163.316 29.1016 163.562 28.8242 163.75 28.4727C163.945 28.1211 164.082 27.7148 164.16 27.2539C164.246 26.793 164.289 26.2969 164.289 25.7656ZM169.234 25.7891V25.543C169.234 24.6133 169.367 23.7578 169.633 22.9766C169.898 22.1875 170.285 21.5039 170.793 20.9258C171.301 20.3477 171.926 19.8984 172.668 19.5781C173.41 19.25 174.262 19.0859 175.223 19.0859C176.184 19.0859 177.039 19.25 177.789 19.5781C178.539 19.8984 179.168 20.3477 179.676 20.9258C180.191 21.5039 180.582 22.1875 180.848 22.9766C181.113 23.7578 181.246 24.6133 181.246 25.543V25.7891C181.246 26.7109 181.113 27.5664 180.848 28.3555C180.582 29.1367 180.191 29.8203 179.676 30.4062C179.168 30.9844 178.543 31.4336 177.801 31.7539C177.059 32.0742 176.207 32.2344 175.246 32.2344C174.285 32.2344 173.43 32.0742 172.68 31.7539C171.938 31.4336 171.309 30.9844 170.793 30.4062C170.285 29.8203 169.898 29.1367 169.633 28.3555C169.367 27.5664 169.234 26.7109 169.234 25.7891ZM172.609 25.543V25.7891C172.609 26.3203 172.656 26.8164 172.75 27.2773C172.844 27.7383 172.992 28.1445 173.195 28.4961C173.406 28.8398 173.68 29.1094 174.016 29.3047C174.352 29.5 174.762 29.5977 175.246 29.5977C175.715 29.5977 176.117 29.5 176.453 29.3047C176.789 29.1094 177.059 28.8398 177.262 28.4961C177.465 28.1445 177.613 27.7383 177.707 27.2773C177.809 26.8164 177.859 26.3203 177.859 25.7891V25.543C177.859 25.0273 177.809 24.543 177.707 24.0898C177.613 23.6289 177.461 23.2227 177.25 22.8711C177.047 22.5117 176.777 22.2305 176.441 22.0273C176.105 21.8242 175.699 21.7227 175.223 21.7227C174.746 21.7227 174.34 21.8242 174.004 22.0273C173.676 22.2305 173.406 22.5117 173.195 22.8711C172.992 23.2227 172.844 23.6289 172.75 24.0898C172.656 24.543 172.609 25.0273 172.609 25.543ZM186.625 22.0273V32H183.25V19.3203H186.414L186.625 22.0273ZM186.133 25.2148H185.219C185.219 24.2773 185.34 23.4336 185.582 22.6836C185.824 21.9258 186.164 21.2812 186.602 20.75C187.039 20.2109 187.559 19.8008 188.16 19.5195C188.77 19.2305 189.449 19.0859 190.199 19.0859C190.793 19.0859 191.336 19.1719 191.828 19.3438C192.32 19.5156 192.742 19.7891 193.094 20.1641C193.453 20.5391 193.727 21.0352 193.914 21.6523C194.109 22.2695 194.207 23.0234 194.207 23.9141V32H190.809V23.9023C190.809 23.3398 190.73 22.9023 190.574 22.5898C190.418 22.2773 190.188 22.0586 189.883 21.9336C189.586 21.8008 189.219 21.7344 188.781 21.7344C188.328 21.7344 187.934 21.8242 187.598 22.0039C187.27 22.1836 186.996 22.4336 186.777 22.7539C186.566 23.0664 186.406 23.4336 186.297 23.8555C186.188 24.2773 186.133 24.7305 186.133 25.2148ZM203.629 28.4961C203.629 28.2539 203.559 28.0352 203.418 27.8398C203.277 27.6445 203.016 27.4648 202.633 27.3008C202.258 27.1289 201.715 26.9727 201.004 26.832C200.363 26.6914 199.766 26.5156 199.211 26.3047C198.664 26.0859 198.188 25.8242 197.781 25.5195C197.383 25.2148 197.07 24.8555 196.844 24.4414C196.617 24.0195 196.504 23.5391 196.504 23C196.504 22.4688 196.617 21.9688 196.844 21.5C197.078 21.0312 197.41 20.6172 197.84 20.2578C198.277 19.8906 198.809 19.6055 199.434 19.4023C200.066 19.1914 200.777 19.0859 201.566 19.0859C202.668 19.0859 203.613 19.2617 204.402 19.6133C205.199 19.9648 205.809 20.4492 206.23 21.0664C206.66 21.6758 206.875 22.3711 206.875 23.1523H203.5C203.5 22.8242 203.43 22.5312 203.289 22.2734C203.156 22.0078 202.945 21.8008 202.656 21.6523C202.375 21.4961 202.008 21.418 201.555 21.418C201.18 21.418 200.855 21.4844 200.582 21.6172C200.309 21.7422 200.098 21.9141 199.949 22.1328C199.809 22.3438 199.738 22.5781 199.738 22.8359C199.738 23.0312 199.777 23.207 199.855 23.3633C199.941 23.5117 200.078 23.6484 200.266 23.7734C200.453 23.8984 200.695 24.0156 200.992 24.125C201.297 24.2266 201.672 24.3203 202.117 24.4062C203.031 24.5938 203.848 24.8398 204.566 25.1445C205.285 25.4414 205.855 25.8477 206.277 26.3633C206.699 26.8711 206.91 27.5391 206.91 28.3672C206.91 28.9297 206.785 29.4453 206.535 29.9141C206.285 30.3828 205.926 30.793 205.457 31.1445C204.988 31.4883 204.426 31.7578 203.77 31.9531C203.121 32.1406 202.391 32.2344 201.578 32.2344C200.398 32.2344 199.398 32.0234 198.578 31.6016C197.766 31.1797 197.148 30.6445 196.727 29.9961C196.312 29.3398 196.105 28.668 196.105 27.9805H199.305C199.32 28.4414 199.438 28.8125 199.656 29.0938C199.883 29.375 200.168 29.5781 200.512 29.7031C200.863 29.8281 201.242 29.8906 201.648 29.8906C202.086 29.8906 202.449 29.832 202.738 29.7148C203.027 29.5898 203.246 29.4258 203.395 29.2227C203.551 29.0117 203.629 28.7695 203.629 28.4961ZM215.945 29.1406V23.4922C215.945 23.0859 215.879 22.7383 215.746 22.4492C215.613 22.1523 215.406 21.9219 215.125 21.7578C214.852 21.5938 214.496 21.5117 214.059 21.5117C213.684 21.5117 213.359 21.5781 213.086 21.7109C212.812 21.8359 212.602 22.0195 212.453 22.2617C212.305 22.4961 212.23 22.7734 212.23 23.0938H208.855C208.855 22.5547 208.98 22.043 209.23 21.5586C209.48 21.0742 209.844 20.6484 210.32 20.2812C210.797 19.9062 211.363 19.6133 212.02 19.4023C212.684 19.1914 213.426 19.0859 214.246 19.0859C215.23 19.0859 216.105 19.25 216.871 19.5781C217.637 19.9062 218.238 20.3984 218.676 21.0547C219.121 21.7109 219.344 22.5312 219.344 23.5156V28.9414C219.344 29.6367 219.387 30.207 219.473 30.6523C219.559 31.0898 219.684 31.4727 219.848 31.8008V32H216.438C216.273 31.6562 216.148 31.2266 216.062 30.7109C215.984 30.1875 215.945 29.6641 215.945 29.1406ZM216.391 24.2773L216.414 26.1875H214.527C214.082 26.1875 213.695 26.2383 213.367 26.3398C213.039 26.4414 212.77 26.5859 212.559 26.7734C212.348 26.9531 212.191 27.1641 212.09 27.4062C211.996 27.6484 211.949 27.9141 211.949 28.2031C211.949 28.4922 212.016 28.7539 212.148 28.9883C212.281 29.2148 212.473 29.3945 212.723 29.5273C212.973 29.6523 213.266 29.7148 213.602 29.7148C214.109 29.7148 214.551 29.6133 214.926 29.4102C215.301 29.207 215.59 28.957 215.793 28.6602C216.004 28.3633 216.113 28.082 216.121 27.8164L217.012 29.2461C216.887 29.5664 216.715 29.8984 216.496 30.2422C216.285 30.5859 216.016 30.9102 215.688 31.2148C215.359 31.5117 214.965 31.7578 214.504 31.9531C214.043 32.1406 213.496 32.2344 212.863 32.2344C212.059 32.2344 211.328 32.0742 210.672 31.7539C210.023 31.4258 209.508 30.9766 209.125 30.4062C208.75 29.8281 208.562 29.1719 208.562 28.4375C208.562 27.7734 208.688 27.1836 208.938 26.668C209.188 26.1523 209.555 25.7188 210.039 25.3672C210.531 25.0078 211.145 24.7383 211.879 24.5586C212.613 24.3711 213.465 24.2773 214.434 24.2773H216.391ZM221.945 14H225.32V29.0938L224.98 32H221.945V14ZM233.348 25.5312V25.7773C233.348 26.7227 233.246 27.5898 233.043 28.3789C232.848 29.168 232.543 29.8516 232.129 30.4297C231.715 31 231.199 31.4453 230.582 31.7656C229.973 32.0781 229.254 32.2344 228.426 32.2344C227.652 32.2344 226.98 32.0781 226.41 31.7656C225.848 31.4531 225.375 31.0117 224.992 30.4414C224.609 29.8711 224.301 29.2031 224.066 28.4375C223.832 27.6719 223.656 26.8359 223.539 25.9297V25.3906C223.656 24.4844 223.832 23.6484 224.066 22.8828C224.301 22.1172 224.609 21.4492 224.992 20.8789C225.375 20.3086 225.848 19.8672 226.41 19.5547C226.973 19.2422 227.637 19.0859 228.402 19.0859C229.238 19.0859 229.965 19.2461 230.582 19.5664C231.207 19.8789 231.723 20.3242 232.129 20.9023C232.543 21.4727 232.848 22.1523 233.043 22.9414C233.246 23.7227 233.348 24.5859 233.348 25.5312ZM229.973 25.7773V25.5312C229.973 25.0156 229.934 24.5312 229.855 24.0781C229.785 23.6172 229.66 23.2148 229.48 22.8711C229.301 22.5195 229.055 22.2422 228.742 22.0391C228.438 21.8359 228.043 21.7344 227.559 21.7344C227.098 21.7344 226.707 21.8125 226.387 21.9688C226.066 22.125 225.801 22.3438 225.59 22.625C225.387 22.9062 225.234 23.2422 225.133 23.6328C225.031 24.0156 224.969 24.4375 224.945 24.8984V26.4336C224.969 27.0508 225.07 27.5977 225.25 28.0742C225.438 28.543 225.719 28.9141 226.094 29.1875C226.477 29.4531 226.973 29.5859 227.582 29.5859C228.059 29.5859 228.453 29.4922 228.766 29.3047C229.078 29.1172 229.32 28.8516 229.492 28.5078C229.672 28.1641 229.797 27.7617 229.867 27.3008C229.938 26.832 229.973 26.3242 229.973 25.7773ZM239.008 14V32H235.621V14H239.008ZM247.633 32.2344C246.648 32.2344 245.766 32.0781 244.984 31.7656C244.203 31.4453 243.539 31.0039 242.992 30.4414C242.453 29.8789 242.039 29.2266 241.75 28.4844C241.461 27.7344 241.316 26.9375 241.316 26.0938V25.625C241.316 24.6641 241.453 23.7852 241.727 22.9883C242 22.1914 242.391 21.5 242.898 20.9141C243.414 20.3281 244.039 19.8789 244.773 19.5664C245.508 19.2461 246.336 19.0859 247.258 19.0859C248.156 19.0859 248.953 19.2344 249.648 19.5312C250.344 19.8281 250.926 20.25 251.395 20.7969C251.871 21.3438 252.23 22 252.473 22.7656C252.715 23.5234 252.836 24.3672 252.836 25.2969V26.7031H242.758V24.4531H249.52V24.1953C249.52 23.7266 249.434 23.3086 249.262 22.9414C249.098 22.5664 248.848 22.2695 248.512 22.0508C248.176 21.832 247.746 21.7227 247.223 21.7227C246.777 21.7227 246.395 21.8203 246.074 22.0156C245.754 22.2109 245.492 22.4844 245.289 22.8359C245.094 23.1875 244.945 23.6016 244.844 24.0781C244.75 24.5469 244.703 25.0625 244.703 25.625V26.0938C244.703 26.6016 244.773 27.0703 244.914 27.5C245.062 27.9297 245.27 28.3008 245.535 28.6133C245.809 28.9258 246.137 29.168 246.52 29.3398C246.91 29.5117 247.352 29.5977 247.844 29.5977C248.453 29.5977 249.02 29.4805 249.543 29.2461C250.074 29.0039 250.531 28.6406 250.914 28.1562L252.555 29.9375C252.289 30.3203 251.926 30.6875 251.465 31.0391C251.012 31.3906 250.465 31.6797 249.824 31.9062C249.184 32.125 248.453 32.2344 247.633 32.2344Z" fill="white"/>
</svg>
