<svg width="219" height="48" viewBox="0 0 219 48" fill="none" xmlns="http://www.w3.org/2000/svg">
<path d="M0 20C0 8.95431 8.95431 0 20 0H199C210.046 0 219 8.9543 219 20V28C219 39.0457 210.046 48 199 48H20C8.95431 48 0 39.0457 0 28V20Z" fill="#9A80A7"/>
<path d="M17.6758 28.4375L21.6953 14.9375H25.6094L19.668 32H17.0898L17.6758 28.4375ZM13.9727 14.9375L17.9805 28.4375L18.5898 32H15.9883L10.082 14.9375H13.9727ZM30.5547 19.3203V32H27.168V19.3203H30.5547ZM26.957 16.0156C26.957 15.5234 27.1289 15.1172 27.4727 14.7969C27.8164 14.4766 28.2773 14.3164 28.8555 14.3164C29.4258 14.3164 29.8828 14.4766 30.2266 14.7969C30.5781 15.1172 30.7539 15.5234 30.7539 16.0156C30.7539 16.5078 30.5781 16.9141 30.2266 17.2344C29.8828 17.5547 29.4258 17.7148 28.8555 17.7148C28.2773 17.7148 27.8164 17.5547 27.4727 17.2344C27.1289 16.9141 26.957 16.5078 26.957 16.0156ZM36.6484 22.0273V32H33.2734V19.3203H36.4375L36.6484 22.0273ZM36.1562 25.2148H35.2422C35.2422 24.2773 35.3633 23.4336 35.6055 22.6836C35.8477 21.9258 36.1875 21.2812 36.625 20.75C37.0625 20.2109 37.582 19.8008 38.1836 19.5195C38.793 19.2305 39.4727 19.0859 40.2227 19.0859C40.8164 19.0859 41.3594 19.1719 41.8516 19.3438C42.3438 19.5156 42.7656 19.7891 43.1172 20.1641C43.4766 20.5391 43.75 21.0352 43.9375 21.6523C44.1328 22.2695 44.2305 23.0234 44.2305 23.9141V32H40.832V23.9023C40.832 23.3398 40.7539 22.9023 40.5977 22.5898C40.4414 22.2773 40.2109 22.0586 39.9062 21.9336C39.6094 21.8008 39.2422 21.7344 38.8047 21.7344C38.3516 21.7344 37.957 21.8242 37.6211 22.0039C37.293 22.1836 37.0195 22.4336 36.8008 22.7539C36.5898 23.0664 36.4297 23.4336 36.3203 23.8555C36.2109 24.2773 36.1562 24.7305 36.1562 25.2148ZM52.0352 29.5977C52.4492 29.5977 52.8164 29.5195 53.1367 29.3633C53.457 29.1992 53.707 28.9727 53.8867 28.6836C54.0742 28.3867 54.1719 28.0391 54.1797 27.6406H57.3555C57.3477 28.5312 57.1094 29.3242 56.6406 30.0195C56.1719 30.707 55.543 31.25 54.7539 31.6484C53.9648 32.0391 53.082 32.2344 52.1055 32.2344C51.1211 32.2344 50.2617 32.0703 49.5273 31.7422C48.8008 31.4141 48.1953 30.9609 47.7109 30.3828C47.2266 29.7969 46.8633 29.1172 46.6211 28.3438C46.3789 27.5625 46.2578 26.7266 46.2578 25.8359V25.4961C46.2578 24.5977 46.3789 23.7617 46.6211 22.9883C46.8633 22.207 47.2266 21.5273 47.7109 20.9492C48.1953 20.3633 48.8008 19.9062 49.5273 19.5781C50.2539 19.25 51.1055 19.0859 52.082 19.0859C53.1211 19.0859 54.0312 19.2852 54.8125 19.6836C55.6016 20.082 56.2188 20.6523 56.6641 21.3945C57.1172 22.1289 57.3477 23 57.3555 24.0078H54.1797C54.1719 23.5859 54.082 23.2031 53.9102 22.8594C53.7461 22.5156 53.5039 22.2422 53.1836 22.0391C52.8711 21.8281 52.4844 21.7227 52.0234 21.7227C51.5312 21.7227 51.1289 21.8281 50.8164 22.0391C50.5039 22.2422 50.2617 22.5234 50.0898 22.8828C49.918 23.2344 49.7969 23.6367 49.7266 24.0898C49.6641 24.5352 49.6328 25.0039 49.6328 25.4961V25.8359C49.6328 26.3281 49.6641 26.8008 49.7266 27.2539C49.7891 27.707 49.9062 28.1094 50.0781 28.4609C50.2578 28.8125 50.5039 29.0898 50.8164 29.293C51.1289 29.4961 51.5352 29.5977 52.0352 29.5977ZM66.8125 28.9648V19.3203H70.1875V32H67.0117L66.8125 28.9648ZM67.1875 26.3633L68.1836 26.3398C68.1836 27.1836 68.0859 27.9688 67.8906 28.6953C67.6953 29.4141 67.4023 30.0391 67.0117 30.5703C66.6211 31.0938 66.1289 31.5039 65.5352 31.8008C64.9414 32.0898 64.2422 32.2344 63.4375 32.2344C62.8203 32.2344 62.25 32.1484 61.7266 31.9766C61.2109 31.7969 60.7656 31.5195 60.3906 31.1445C60.0234 30.7617 59.7344 30.2734 59.5234 29.6797C59.3203 29.0781 59.2188 28.3555 59.2188 27.5117V19.3203H62.5938V27.5352C62.5938 27.9102 62.6367 28.2266 62.7227 28.4844C62.8164 28.7422 62.9453 28.9531 63.1094 29.1172C63.2734 29.2812 63.4648 29.3984 63.6836 29.4688C63.9102 29.5391 64.1602 29.5742 64.4336 29.5742C65.1289 29.5742 65.6758 29.4336 66.0742 29.1523C66.4805 28.8711 66.7656 28.4883 66.9297 28.0039C67.1016 27.5117 67.1875 26.9648 67.1875 26.3633ZM76.3281 14V32H72.9414V14H76.3281ZM78.5781 25.7891V25.543C78.5781 24.6133 78.7109 23.7578 78.9766 22.9766C79.2422 22.1875 79.6289 21.5039 80.1367 20.9258C80.6445 20.3477 81.2695 19.8984 82.0117 19.5781C82.7539 19.25 83.6055 19.0859 84.5664 19.0859C85.5273 19.0859 86.3828 19.25 87.1328 19.5781C87.8828 19.8984 88.5117 20.3477 89.0195 20.9258C89.5352 21.5039 89.9258 22.1875 90.1914 22.9766C90.457 23.7578 90.5898 24.6133 90.5898 25.543V25.7891C90.5898 26.7109 90.457 27.5664 90.1914 28.3555C89.9258 29.1367 89.5352 29.8203 89.0195 30.4062C88.5117 30.9844 87.8867 31.4336 87.1445 31.7539C86.4023 32.0742 85.5508 32.2344 84.5898 32.2344C83.6289 32.2344 82.7734 32.0742 82.0234 31.7539C81.2812 31.4336 80.6523 30.9844 80.1367 30.4062C79.6289 29.8203 79.2422 29.1367 78.9766 28.3555C78.7109 27.5664 78.5781 26.7109 78.5781 25.7891ZM81.9531 25.543V25.7891C81.9531 26.3203 82 26.8164 82.0938 27.2773C82.1875 27.7383 82.3359 28.1445 82.5391 28.4961C82.75 28.8398 83.0234 29.1094 83.3594 29.3047C83.6953 29.5 84.1055 29.5977 84.5898 29.5977C85.0586 29.5977 85.4609 29.5 85.7969 29.3047C86.1328 29.1094 86.4023 28.8398 86.6055 28.4961C86.8086 28.1445 86.957 27.7383 87.0508 27.2773C87.1523 26.8164 87.2031 26.3203 87.2031 25.7891V25.543C87.2031 25.0273 87.1523 24.543 87.0508 24.0898C86.957 23.6289 86.8047 23.2227 86.5938 22.8711C86.3906 22.5117 86.1211 22.2305 85.7852 22.0273C85.4492 21.8242 85.043 21.7227 84.5664 21.7227C84.0898 21.7227 83.6836 21.8242 83.3477 22.0273C83.0195 22.2305 82.75 22.5117 82.5391 22.8711C82.3359 23.2227 82.1875 23.6289 82.0938 24.0898C82 24.543 81.9531 25.0273 81.9531 25.543ZM99.5195 28.4961C99.5195 28.2539 99.4492 28.0352 99.3086 27.8398C99.168 27.6445 98.9062 27.4648 98.5234 27.3008C98.1484 27.1289 97.6055 26.9727 96.8945 26.832C96.2539 26.6914 95.6562 26.5156 95.1016 26.3047C94.5547 26.0859 94.0781 25.8242 93.6719 25.5195C93.2734 25.2148 92.9609 24.8555 92.7344 24.4414C92.5078 24.0195 92.3945 23.5391 92.3945 23C92.3945 22.4688 92.5078 21.9688 92.7344 21.5C92.9688 21.0312 93.3008 20.6172 93.7305 20.2578C94.168 19.8906 94.6992 19.6055 95.3242 19.4023C95.957 19.1914 96.668 19.0859 97.457 19.0859C98.5586 19.0859 99.5039 19.2617 100.293 19.6133C101.09 19.9648 101.699 20.4492 102.121 21.0664C102.551 21.6758 102.766 22.3711 102.766 23.1523H99.3906C99.3906 22.8242 99.3203 22.5312 99.1797 22.2734C99.0469 22.0078 98.8359 21.8008 98.5469 21.6523C98.2656 21.4961 97.8984 21.418 97.4453 21.418C97.0703 21.418 96.7461 21.4844 96.4727 21.6172C96.1992 21.7422 95.9883 21.9141 95.8398 22.1328C95.6992 22.3438 95.6289 22.5781 95.6289 22.8359C95.6289 23.0312 95.668 23.207 95.7461 23.3633C95.832 23.5117 95.9688 23.6484 96.1562 23.7734C96.3438 23.8984 96.5859 24.0156 96.8828 24.125C97.1875 24.2266 97.5625 24.3203 98.0078 24.4062C98.9219 24.5938 99.7383 24.8398 100.457 25.1445C101.176 25.4414 101.746 25.8477 102.168 26.3633C102.59 26.8711 102.801 27.5391 102.801 28.3672C102.801 28.9297 102.676 29.4453 102.426 29.9141C102.176 30.3828 101.816 30.793 101.348 31.1445C100.879 31.4883 100.316 31.7578 99.6602 31.9531C99.0117 32.1406 98.2812 32.2344 97.4688 32.2344C96.2891 32.2344 95.2891 32.0234 94.4688 31.6016C93.6562 31.1797 93.0391 30.6445 92.6172 29.9961C92.2031 29.3398 91.9961 28.668 91.9961 27.9805H95.1953C95.2109 28.4414 95.3281 28.8125 95.5469 29.0938C95.7734 29.375 96.0586 29.5781 96.4023 29.7031C96.7539 29.8281 97.1328 29.8906 97.5391 29.8906C97.9766 29.8906 98.3398 29.832 98.6289 29.7148C98.918 29.5898 99.1367 29.4258 99.2852 29.2227C99.4414 29.0117 99.5195 28.7695 99.5195 28.4961ZM117.812 29.1406V23.4922C117.812 23.0859 117.746 22.7383 117.613 22.4492C117.48 22.1523 117.273 21.9219 116.992 21.7578C116.719 21.5938 116.363 21.5117 115.926 21.5117C115.551 21.5117 115.227 21.5781 114.953 21.7109C114.68 21.8359 114.469 22.0195 114.32 22.2617C114.172 22.4961 114.098 22.7734 114.098 23.0938H110.723C110.723 22.5547 110.848 22.043 111.098 21.5586C111.348 21.0742 111.711 20.6484 112.188 20.2812C112.664 19.9062 113.23 19.6133 113.887 19.4023C114.551 19.1914 115.293 19.0859 116.113 19.0859C117.098 19.0859 117.973 19.25 118.738 19.5781C119.504 19.9062 120.105 20.3984 120.543 21.0547C120.988 21.7109 121.211 22.5312 121.211 23.5156V28.9414C121.211 29.6367 121.254 30.207 121.34 30.6523C121.426 31.0898 121.551 31.4727 121.715 31.8008V32H118.305C118.141 31.6562 118.016 31.2266 117.93 30.7109C117.852 30.1875 117.812 29.6641 117.812 29.1406ZM118.258 24.2773L118.281 26.1875H116.395C115.949 26.1875 115.562 26.2383 115.234 26.3398C114.906 26.4414 114.637 26.5859 114.426 26.7734C114.215 26.9531 114.059 27.1641 113.957 27.4062C113.863 27.6484 113.816 27.9141 113.816 28.2031C113.816 28.4922 113.883 28.7539 114.016 28.9883C114.148 29.2148 114.34 29.3945 114.59 29.5273C114.84 29.6523 115.133 29.7148 115.469 29.7148C115.977 29.7148 116.418 29.6133 116.793 29.4102C117.168 29.207 117.457 28.957 117.66 28.6602C117.871 28.3633 117.98 28.082 117.988 27.8164L118.879 29.2461C118.754 29.5664 118.582 29.8984 118.363 30.2422C118.152 30.5859 117.883 30.9102 117.555 31.2148C117.227 31.5117 116.832 31.7578 116.371 31.9531C115.91 32.1406 115.363 32.2344 114.73 32.2344C113.926 32.2344 113.195 32.0742 112.539 31.7539C111.891 31.4258 111.375 30.9766 110.992 30.4062C110.617 29.8281 110.43 29.1719 110.43 28.4375C110.43 27.7734 110.555 27.1836 110.805 26.668C111.055 26.1523 111.422 25.7188 111.906 25.3672C112.398 25.0078 113.012 24.7383 113.746 24.5586C114.48 24.3711 115.332 24.2773 116.301 24.2773H118.258ZM128.113 32H124.715V18.1953C124.715 17.2344 124.902 16.4258 125.277 15.7695C125.66 15.1055 126.195 14.6055 126.883 14.2695C127.578 13.9258 128.402 13.7539 129.355 13.7539C129.668 13.7539 129.969 13.7773 130.258 13.8242C130.547 13.8633 130.828 13.9141 131.102 13.9766L131.066 16.5195C130.918 16.4805 130.762 16.4531 130.598 16.4375C130.434 16.4219 130.242 16.4141 130.023 16.4141C129.617 16.4141 129.27 16.4844 128.98 16.625C128.699 16.7578 128.484 16.957 128.336 17.2227C128.188 17.4883 128.113 17.8125 128.113 18.1953V32ZM130.645 19.3203V21.7109H122.828V19.3203H130.645ZM137.969 32.2344C136.984 32.2344 136.102 32.0781 135.32 31.7656C134.539 31.4453 133.875 31.0039 133.328 30.4414C132.789 29.8789 132.375 29.2266 132.086 28.4844C131.797 27.7344 131.652 26.9375 131.652 26.0938V25.625C131.652 24.6641 131.789 23.7852 132.062 22.9883C132.336 22.1914 132.727 21.5 133.234 20.9141C133.75 20.3281 134.375 19.8789 135.109 19.5664C135.844 19.2461 136.672 19.0859 137.594 19.0859C138.492 19.0859 139.289 19.2344 139.984 19.5312C140.68 19.8281 141.262 20.25 141.73 20.7969C142.207 21.3438 142.566 22 142.809 22.7656C143.051 23.5234 143.172 24.3672 143.172 25.2969V26.7031H133.094V24.4531H139.855V24.1953C139.855 23.7266 139.77 23.3086 139.598 22.9414C139.434 22.5664 139.184 22.2695 138.848 22.0508C138.512 21.832 138.082 21.7227 137.559 21.7227C137.113 21.7227 136.73 21.8203 136.41 22.0156C136.09 22.2109 135.828 22.4844 135.625 22.8359C135.43 23.1875 135.281 23.6016 135.18 24.0781C135.086 24.5469 135.039 25.0625 135.039 25.625V26.0938C135.039 26.6016 135.109 27.0703 135.25 27.5C135.398 27.9297 135.605 28.3008 135.871 28.6133C136.145 28.9258 136.473 29.168 136.855 29.3398C137.246 29.5117 137.688 29.5977 138.18 29.5977C138.789 29.5977 139.355 29.4805 139.879 29.2461C140.41 29.0039 140.867 28.6406 141.25 28.1562L142.891 29.9375C142.625 30.3203 142.262 30.6875 141.801 31.0391C141.348 31.3906 140.801 31.6797 140.16 31.9062C139.52 32.125 138.789 32.2344 137.969 32.2344ZM150.332 29.5977C150.746 29.5977 151.113 29.5195 151.434 29.3633C151.754 29.1992 152.004 28.9727 152.184 28.6836C152.371 28.3867 152.469 28.0391 152.477 27.6406H155.652C155.645 28.5312 155.406 29.3242 154.938 30.0195C154.469 30.707 153.84 31.25 153.051 31.6484C152.262 32.0391 151.379 32.2344 150.402 32.2344C149.418 32.2344 148.559 32.0703 147.824 31.7422C147.098 31.4141 146.492 30.9609 146.008 30.3828C145.523 29.7969 145.16 29.1172 144.918 28.3438C144.676 27.5625 144.555 26.7266 144.555 25.8359V25.4961C144.555 24.5977 144.676 23.7617 144.918 22.9883C145.16 22.207 145.523 21.5273 146.008 20.9492C146.492 20.3633 147.098 19.9062 147.824 19.5781C148.551 19.25 149.402 19.0859 150.379 19.0859C151.418 19.0859 152.328 19.2852 153.109 19.6836C153.898 20.082 154.516 20.6523 154.961 21.3945C155.414 22.1289 155.645 23 155.652 24.0078H152.477C152.469 23.5859 152.379 23.2031 152.207 22.8594C152.043 22.5156 151.801 22.2422 151.48 22.0391C151.168 21.8281 150.781 21.7227 150.32 21.7227C149.828 21.7227 149.426 21.8281 149.113 22.0391C148.801 22.2422 148.559 22.5234 148.387 22.8828C148.215 23.2344 148.094 23.6367 148.023 24.0898C147.961 24.5352 147.93 25.0039 147.93 25.4961V25.8359C147.93 26.3281 147.961 26.8008 148.023 27.2539C148.086 27.707 148.203 28.1094 148.375 28.4609C148.555 28.8125 148.801 29.0898 149.113 29.293C149.426 29.4961 149.832 29.5977 150.332 29.5977ZM163.82 19.3203V21.7109H156.438V19.3203H163.82ZM158.266 16.1914H161.641V28.1797C161.641 28.5469 161.688 28.8281 161.781 29.0234C161.883 29.2188 162.031 29.3555 162.227 29.4336C162.422 29.5039 162.668 29.5391 162.965 29.5391C163.176 29.5391 163.363 29.5312 163.527 29.5156C163.699 29.4922 163.844 29.4688 163.961 29.4453L163.973 31.9297C163.684 32.0234 163.371 32.0977 163.035 32.1523C162.699 32.207 162.328 32.2344 161.922 32.2344C161.18 32.2344 160.531 32.1133 159.977 31.8711C159.43 31.6211 159.008 31.2227 158.711 30.6758C158.414 30.1289 158.266 29.4102 158.266 28.5195V16.1914ZM169.305 19.3203V32H165.918V19.3203H169.305ZM165.707 16.0156C165.707 15.5234 165.879 15.1172 166.223 14.7969C166.566 14.4766 167.027 14.3164 167.605 14.3164C168.176 14.3164 168.633 14.4766 168.977 14.7969C169.328 15.1172 169.504 15.5234 169.504 16.0156C169.504 16.5078 169.328 16.9141 168.977 17.2344C168.633 17.5547 168.176 17.7148 167.605 17.7148C167.027 17.7148 166.566 17.5547 166.223 17.2344C165.879 16.9141 165.707 16.5078 165.707 16.0156ZM176.406 29.5391L179.219 19.3203H182.746L178.469 32H176.336L176.406 29.5391ZM174.473 19.3203L177.297 29.5508L177.355 32H175.211L170.934 19.3203H174.473ZM183.531 25.7891V25.543C183.531 24.6133 183.664 23.7578 183.93 22.9766C184.195 22.1875 184.582 21.5039 185.09 20.9258C185.598 20.3477 186.223 19.8984 186.965 19.5781C187.707 19.25 188.559 19.0859 189.52 19.0859C190.48 19.0859 191.336 19.25 192.086 19.5781C192.836 19.8984 193.465 20.3477 193.973 20.9258C194.488 21.5039 194.879 22.1875 195.145 22.9766C195.41 23.7578 195.543 24.6133 195.543 25.543V25.7891C195.543 26.7109 195.41 27.5664 195.145 28.3555C194.879 29.1367 194.488 29.8203 193.973 30.4062C193.465 30.9844 192.84 31.4336 192.098 31.7539C191.355 32.0742 190.504 32.2344 189.543 32.2344C188.582 32.2344 187.727 32.0742 186.977 31.7539C186.234 31.4336 185.605 30.9844 185.09 30.4062C184.582 29.8203 184.195 29.1367 183.93 28.3555C183.664 27.5664 183.531 26.7109 183.531 25.7891ZM186.906 25.543V25.7891C186.906 26.3203 186.953 26.8164 187.047 27.2773C187.141 27.7383 187.289 28.1445 187.492 28.4961C187.703 28.8398 187.977 29.1094 188.312 29.3047C188.648 29.5 189.059 29.5977 189.543 29.5977C190.012 29.5977 190.414 29.5 190.75 29.3047C191.086 29.1094 191.355 28.8398 191.559 28.4961C191.762 28.1445 191.91 27.7383 192.004 27.2773C192.105 26.8164 192.156 26.3203 192.156 25.7891V25.543C192.156 25.0273 192.105 24.543 192.004 24.0898C191.91 23.6289 191.758 23.2227 191.547 22.8711C191.344 22.5117 191.074 22.2305 190.738 22.0273C190.402 21.8242 189.996 21.7227 189.52 21.7227C189.043 21.7227 188.637 21.8242 188.301 22.0273C187.973 22.2305 187.703 22.5117 187.492 22.8711C187.289 23.2227 187.141 23.6289 187.047 24.0898C186.953 24.543 186.906 25.0273 186.906 25.543ZM204.473 28.4961C204.473 28.2539 204.402 28.0352 204.262 27.8398C204.121 27.6445 203.859 27.4648 203.477 27.3008C203.102 27.1289 202.559 26.9727 201.848 26.832C201.207 26.6914 200.609 26.5156 200.055 26.3047C199.508 26.0859 199.031 25.8242 198.625 25.5195C198.227 25.2148 197.914 24.8555 197.688 24.4414C197.461 24.0195 197.348 23.5391 197.348 23C197.348 22.4688 197.461 21.9688 197.688 21.5C197.922 21.0312 198.254 20.6172 198.684 20.2578C199.121 19.8906 199.652 19.6055 200.277 19.4023C200.91 19.1914 201.621 19.0859 202.41 19.0859C203.512 19.0859 204.457 19.2617 205.246 19.6133C206.043 19.9648 206.652 20.4492 207.074 21.0664C207.504 21.6758 207.719 22.3711 207.719 23.1523H204.344C204.344 22.8242 204.273 22.5312 204.133 22.2734C204 22.0078 203.789 21.8008 203.5 21.6523C203.219 21.4961 202.852 21.418 202.398 21.418C202.023 21.418 201.699 21.4844 201.426 21.6172C201.152 21.7422 200.941 21.9141 200.793 22.1328C200.652 22.3438 200.582 22.5781 200.582 22.8359C200.582 23.0312 200.621 23.207 200.699 23.3633C200.785 23.5117 200.922 23.6484 201.109 23.7734C201.297 23.8984 201.539 24.0156 201.836 24.125C202.141 24.2266 202.516 24.3203 202.961 24.4062C203.875 24.5938 204.691 24.8398 205.41 25.1445C206.129 25.4414 206.699 25.8477 207.121 26.3633C207.543 26.8711 207.754 27.5391 207.754 28.3672C207.754 28.9297 207.629 29.4453 207.379 29.9141C207.129 30.3828 206.77 30.793 206.301 31.1445C205.832 31.4883 205.27 31.7578 204.613 31.9531C203.965 32.1406 203.234 32.2344 202.422 32.2344C201.242 32.2344 200.242 32.0234 199.422 31.6016C198.609 31.1797 197.992 30.6445 197.57 29.9961C197.156 29.3398 196.949 28.668 196.949 27.9805H200.148C200.164 28.4414 200.281 28.8125 200.5 29.0938C200.727 29.375 201.012 29.5781 201.355 29.7031C201.707 29.8281 202.086 29.8906 202.492 29.8906C202.93 29.8906 203.293 29.832 203.582 29.7148C203.871 29.5898 204.09 29.4258 204.238 29.2227C204.395 29.0117 204.473 28.7695 204.473 28.4961Z" fill="white"/>
</svg>
