<svg width="67" height="63" viewBox="0 0 67 63" fill="none" xmlns="http://www.w3.org/2000/svg">
<ellipse cx="33.5" cy="31.5" rx="33.5" ry="31.5" fill="#00B2D1"/>
<path fill-rule="evenodd" clip-rule="evenodd" d="M48.7071 16.3784C46.732 14.3902 44.3819 12.8138 41.7932 11.7404C39.2044 10.6669 36.4284 10.1179 33.6259 10.125C21.8744 10.125 12.3079 19.6891 12.3031 31.4454C12.3031 35.2026 13.284 38.8696 15.1484 42.1044L12.125 53.1505L23.4276 50.1841C26.5541 51.886 30.0567 52.7784 33.6164 52.78H33.6259C45.375 52.78 54.9415 43.2159 54.9462 31.4596C54.9543 28.6583 54.4071 25.8831 53.3362 23.2945C52.2653 20.7059 50.692 18.3553 48.7071 16.3784ZM33.6259 49.1819H33.6187C30.4446 49.1822 27.3289 48.3282 24.5985 46.7095L23.9525 46.3248L17.2455 48.0846L19.0339 41.5463L18.6135 40.8765C16.8389 38.0513 15.8994 34.7817 15.9036 31.4454C15.9084 21.6746 23.8575 13.7255 33.633 13.7255C35.9611 13.7203 38.2671 14.177 40.4175 15.0689C42.568 15.9609 44.5202 17.2705 46.1611 18.922C47.8108 20.5656 49.1185 22.5199 50.0084 24.6719C50.8983 26.8239 51.3528 29.1309 51.3457 31.4596C51.341 41.2304 43.3919 49.1819 33.6259 49.1819ZM43.3467 35.908C42.8124 35.6396 40.1951 34.3524 39.7059 34.1743C39.219 33.9961 38.8651 33.9083 38.5089 34.4403C38.1526 34.9723 37.1314 36.1716 36.8202 36.5279C36.5091 36.8841 36.198 36.9269 35.666 36.6609C35.134 36.3949 33.4169 35.832 31.3815 34.0175C29.7974 32.6044 28.7286 30.8611 28.4175 30.3268C28.1064 29.7924 28.3842 29.505 28.6526 29.239C28.8925 29.0015 29.1846 28.6168 29.4506 28.3056C29.7166 27.9945 29.8045 27.7736 29.9826 27.4174C30.1607 27.0611 30.0729 26.75 29.9375 26.484C29.8045 26.2156 28.7381 23.5936 28.294 22.5273C27.8641 21.4941 27.4247 21.6319 27.097 21.6176C26.7576 21.6037 26.4178 21.5974 26.0781 21.5986C25.808 21.6055 25.5422 21.6681 25.2974 21.7826C25.0526 21.897 24.834 22.0608 24.6555 22.2636C24.1662 22.798 22.7911 24.0853 22.7911 26.7073C22.7911 29.3293 24.7006 31.8634 24.9666 32.2196C25.2326 32.5759 28.7239 37.9553 34.0676 40.2638C35.3406 40.8124 36.3334 41.1401 37.1052 41.3871C38.3806 41.7933 39.542 41.7339 40.4611 41.5985C41.4847 41.4465 43.6127 40.3113 44.0569 39.0668C44.501 37.8223 44.501 36.7559 44.368 36.5326C44.235 36.3094 43.8764 36.174 43.3467 35.908Z" fill="#752995"/>
</svg>
